<svg width="24" height="24" viewBox="0 0 24 24" fill="none" xmlns="http://www.w3.org/2000/svg">
<path d="M12 24C18.6274 24 24 18.6274 24 12C24 5.37258 18.6274 0 12 0C5.37258 0 0 5.37258 0 12C0 18.6274 5.37258 24 12 24Z" fill="#FDD835"/>
<path style="mix-blend-mode:multiply" d="M12 24C18.6274 24 24 18.6274 24 12C24 5.37258 18.6274 0 12 0C5.37258 0 0 5.37258 0 12C0 18.6274 5.37258 24 12 24Z" fill="url(#paint0_radial_660_314)"/>
<path d="M6.66406 14.2803H17.4167C17.4167 14.2803 17.2972 18.8677 12.0404 18.8677C6.78358 18.8677 6.66406 14.2803 6.66406 14.2803Z" fill="#212121"/>
<path d="M9.33594 18.321C11.07 19.0337 13.0152 19.0337 14.7492 18.321C14.558 17.5582 13.4214 16.9736 12.0415 16.9736C10.6615 16.9736 9.52717 17.5625 9.33594 18.321Z" fill="#FF5252"/>
<path d="M5.31641 12.115C5.38418 11.6069 5.64872 11.1457 6.0531 10.8307C7.33524 9.75719 9.40623 10.5373 9.80826 12.115C9.03028 11.9738 8.26316 11.663 7.51561 11.6348C6.76805 11.6065 6.12264 11.8304 5.31641 12.115Z" fill="#212121"/>
<path d="M18.7672 12.115C17.961 11.8304 17.333 11.6022 16.568 11.6348C15.8031 11.6674 15.0469 11.9738 14.2754 12.115C14.6774 10.5373 16.7484 9.75719 18.0306 10.8307C18.4349 11.1457 18.6995 11.6069 18.7672 12.115Z" fill="#212121"/>
<path d="M7.21484 10.8379C7.3437 10.745 7.49135 10.6815 7.6474 10.6519C7.80345 10.6223 7.9641 10.6272 8.11804 10.6663C8.27198 10.7055 8.41546 10.7779 8.53838 10.8785C8.66129 10.9791 8.76066 11.1055 8.82947 11.2486C8.27793 11.1709 7.73651 11.0331 7.21484 10.8379Z" fill="#7E7E7E"/>
<path d="M16.3984 10.8379C16.5273 10.745 16.6749 10.6815 16.831 10.6519C16.987 10.6223 17.1477 10.6272 17.3016 10.6663C17.4556 10.7055 17.5991 10.7779 17.722 10.8785C17.8449 10.9791 17.9443 11.1055 18.0131 11.2486C17.4616 11.1706 16.9202 11.0329 16.3984 10.8379Z" fill="#7E7E7E"/>
<defs>
<radialGradient id="paint0_radial_660_314" cx="0" cy="0" r="1" gradientUnits="userSpaceOnUse" gradientTransform="translate(12 12) scale(12)">
<stop stop-color="#FDD835" stop-opacity="0"/>
<stop offset="0.23" stop-color="#FDD835" stop-opacity="0.01"/>
<stop offset="0.37" stop-color="#FDD835" stop-opacity="0.04"/>
<stop offset="0.48" stop-color="#FDD835" stop-opacity="0.1"/>
<stop offset="0.58" stop-color="#FDD835" stop-opacity="0.18"/>
<stop offset="0.67" stop-color="#FDD835" stop-opacity="0.28"/>
<stop offset="0.75" stop-color="#FDD835" stop-opacity="0.41"/>
<stop offset="0.83" stop-color="#FDD835" stop-opacity="0.56"/>
<stop offset="0.91" stop-color="#FDD835" stop-opacity="0.73"/>
<stop offset="0.98" stop-color="#FDD835" stop-opacity="0.93"/>
<stop offset="1" stop-color="#FDD835"/>
</radialGradient>
</defs>
</svg>
